Coordinates
version=1
nRows=39
nColumns=6
inDegrees=yes

Units are S.I. units (second, meters, Newtons, ...)
If the header above contains a line with 'inDegrees', this indicates whether rotational values are in degrees (yes) or radians (no).

endheader
time	foot_tx	hip_flexion_r	knee_angle_r	ankle_angle_r	lumbar
     86.90000000	      0.22852892	     68.18557095	    -79.83978828	     -1.66842789	    -25.29891227
     86.91000000	      0.22851644	     68.21302545	    -79.81379395	     -1.68387553	    -25.33054396
     86.92000000	      0.22850357	     68.24123765	    -79.78404575	     -1.70109818	    -25.36991327
     86.93000000	      0.22847758	     68.21536822	    -79.75120275	     -1.71415045	    -25.48041875
     86.94000000	      0.22845262	     68.25844689	    -79.71659560	     -1.73471079	    -25.52651559
     86.95000000	      0.22841727	     68.25777809	    -79.67712724	     -1.75325769	    -25.63652715
     86.96000000	      0.22838311	     68.31607437	    -79.63424475	     -1.77956555	    -25.69824389
     86.97000000	      0.22833475	     68.31989013	    -79.58526478	     -1.80380663	    -25.84215537
     86.98000000	      0.22828900	     68.39914941	    -79.53162678	     -1.83835090	    -25.92558201
     86.99000000	      0.22822849	     68.40925971	    -79.47041611	     -1.87028769	    -26.11362881
     87.00000000	      0.22816803	     68.46638455	    -79.40355103	     -1.91026251	    -26.27849512
     87.01000000	      0.22810330	     68.52715035	    -79.33052100	     -1.95381311	    -26.47020865
     87.02000000	      0.22803664	     68.58424592	    -79.25210181	     -1.99969328	    -26.69818230
     87.03000000	      0.22796753	     68.63614443	    -79.16897603	     -2.04709366	    -26.96453274
     87.04000000	      0.22789826	     68.67623653	    -79.08208798	     -2.09443863	    -27.27663601
     87.05000000	      0.22783036	     68.70726775	    -78.99272662	     -2.14113697	    -27.63249402
     87.06000000	      0.22776352	     68.73030555	    -78.90197784	     -2.18632734	    -28.03123299
     87.07000000	      0.22769626	     68.74895973	    -78.81100733	     -2.22960465	    -28.47011601
     87.08000000	      0.22763260	     68.77614610	    -78.72044136	     -2.27228434	    -28.93696962
     87.09000000	      0.22756853	     68.81537680	    -78.63077908	     -2.31479360	    -29.43006265
     87.10000000	      0.22750401	     68.87444201	    -78.54226547	     -2.35828656	    -29.94303498
     87.11000000	      0.22744232	     68.96686688	    -78.45480662	     -2.40492677	    -30.46345271
     87.12000000	      0.22738202	     69.09679201	    -78.36816217	     -2.45580957	    -30.98926255
     87.13000000	      0.22732411	     69.26953540	    -78.28189340	     -2.51207099	    -31.51660711
     87.14000000	      0.22726988	     69.48413744	    -78.19569675	     -2.57377947	    -32.04767328
     87.15000000	      0.22721842	     69.73534618	    -78.10948077	     -2.63992818	    -32.58847643
     87.16000000	      0.22717069	     70.01520224	    -78.02342850	     -2.70867147	    -33.14679419
     87.17000000	      0.22712497	     70.31204022	    -77.93779435	     -2.77730481	    -33.73398678
     87.18000000	      0.22708103	     70.61649423	    -77.85303056	     -2.84326308	    -34.35887493
     87.19000000	      0.22703395	     70.92234204	    -77.76983864	     -2.90414649	    -35.02789385
     87.20000000	      0.22699435	     71.23864919	    -77.68699649	     -2.96145223	    -35.73105692
     87.21000000	      0.22694035	     71.57229335	    -77.61136952	     -3.01054539	    -36.46115701
     87.22000000	      0.22688892	     71.93419395	    -77.53686006	     -3.05648635	    -37.20777533
     87.23000000	      0.22683151	     72.33132279	    -77.46657784	     -3.09679845	    -37.96134767
     87.24000000	      0.22676987	     72.76827565	    -77.39855432	     -3.13232089	    -38.71615562
     87.25000000	      0.22670099	     73.26265787	    -77.33403334	     -3.16363326	    -39.45193002
     87.26000000	      0.22663142	     73.84430908	    -77.27488313	     -3.19288160	    -40.13345969
     87.27000000	      0.22655591	     74.52278253	    -77.22286911	     -3.21898816	    -40.74691602
     87.28000000	      0.22647107	     75.32713560	    -77.17949280	     -3.24159315	    -41.25252476
